PathFileType	4	(X/Y/Z)	C:/Users/opensim2020/Desktop/walking_exp_matlab/subject01_walking06_straight_02.trc	
DataRate	CameraRate	NumFrames	NumMarkers	Units	OrigDataRate	OrigDataStartFrame	OrigNumFrames	
100.00	100.00	5	43	mm	100.00	1621	171	
Frame#	Time	LFHD			RFHD			LBHD			RBHD			C7			T10			CLAV			STRN			RBAK			LSHO			LUPA			LELB			LFRM			LWRA			LWRB			LFIN			RSHO			RUPA			RELB			RFRM			RWRA			RWRB			RFIN			LASI			RASI			LPSI			RPSI			LTHI			LKNE			LTIB			LANK			LHEE			LTOE			RTHI			RKNE			RTIB			RANK			RHEE			RTOE			*39			*40			*41			*42			
		X1	Y1	Z1	X2	Y2	Z2	X3	Y3	Z3	X4	Y4	Z4	X5	Y5	Z5	X6	Y6	Z6	X7	Y7	Z7	X8	Y8	Z8	X9	Y9	Z9	X10	Y10	Z10	X11	Y11	Z11	X12	Y12	Z12	X13	Y13	Z13	X14	Y14	Z14	X15	Y15	Z15	X16	Y16	Z16	X17	Y17	Z17	X18	Y18	Z18	X19	Y19	Z19	X20	Y20	Z20	X21	Y21	Z21	X22	Y22	Z22	X23	Y23	Z23	X24	Y24	Z24	X25	Y25	Z25	X26	Y26	Z26	X27	Y27	Z27	X28	Y28	Z28	X29	Y29	Z29	X30	Y30	Z30	X31	Y31	Z31	X32	Y32	Z32	X33	Y33	Z33	X34	Y34	Z34	X35	Y35	Z35	X36	Y36	Z36	X37	Y37	Z37	X38	Y38	Z38	X39	Y39	Z39	X40	Y40	Z40	X41	Y41	Z41	X42	Y42	Z42	X43	Y43	Z43	

107	1.060	-1104.58594	-149.30667	1673.31018	-1212.81787	-189.27400	1673.35803	-1140.42212	-34.24192	1635.31836	-1254.52747	-73.65138	1635.15173	-1170.00952	5.27136	1436.67468	-1167.77686	38.88680	1142.48718	-1156.71313	-138.31670	1367.77966	-1143.34363	-181.19565	1215.14294	-1243.84521	53.41479	1239.04944	-1001.26599	-66.56851	1402.90491	-912.97272	-31.47963	1221.09766	-909.69965	-15.86743	1070.41394	-880.51782	-55.14466	963.61230	-895.77112	-136.03624	848.71948	-869.73157	-81.76752	844.25244	-863.15314	-130.08063	773.39270	-1313.97192	-87.19618	1391.28674	-1412.08508	-40.90096	1186.97437	-1410.89563	-42.73246	1061.79431	-1436.87500	-79.19903	945.95367	-1414.52563	-168.21432	836.10034	-1452.77087	-124.50658	832.75391	-1449.80334	-165.89870	757.89880	-1045.56628	-130.07573	938.34406	-1262.86804	-145.85588	939.79242	-1108.10010	51.43711	945.57239	-1252.78503	41.27699	951.14069	-972.12628	-163.55003	616.88873	-978.79102	-179.70494	485.55630	-985.78760	-46.68236	360.83908	-1045.51282	91.92651	193.74339	-1108.01184	133.79486	193.20197	-1026.83398	12.48124	72.36733	-1311.61780	-99.67378	604.97296	-1281.36047	-108.52216	447.21411	-1286.87122	-53.28425	278.42322	-1231.32764	-23.92888	75.73097	-1183.07166	28.41436	40.64400	-1220.60803	-164.58461	34.48255	-1194.23022	-174.22910	1708.54443	-3101.86914	1973.02222	1023.56329	-3140.55518	2012.52112	1021.97626			 
108	1.070	-1103.93420	-159.49413	1673.51807	-1212.11206	-199.55968	1673.28186	-1140.25891	-44.13097	1635.77075	-1254.18445	-83.86586	1635.63513	-1170.36633	-4.12384	1437.02881	-1168.24756	29.86537	1142.82568	-1156.82214	-147.50537	1367.85413	-1143.63391	-190.19341	1215.23206	-1244.47864	44.10992	1239.47363	-1001.40125	-75.51524	1402.87451	-913.62457	-38.90194	1220.97839	-911.36261	-21.41264	1070.69946	-882.10913	-58.25061	962.95374	-897.49121	-135.95148	845.79529	-871.43213	-81.62665	842.87982	-865.26367	-127.62610	770.47162	-1314.12646	-96.87401	1391.59607	-1412.60730	-51.37075	1187.38159	-1411.94958	-54.30968	1062.04871	-1438.13953	-92.98750	946.88025	-1415.16675	-184.28859	838.83667	-1453.49988	-140.75691	834.54926	-1450.65527	-183.96284	760.84650	-1046.13513	-139.44211	939.08325	-1263.48035	-154.28528	939.66736	-1108.02539	42.60868	946.11572	-1252.66187	32.75724	951.46344	-971.83783	-176.67943	619.10767	-979.10150	-194.42958	487.86487	-985.81030	-65.64040	357.60947	-1045.94568	66.82785	186.21230	-1109.26758	108.52365	182.97673	-1023.50391	-17.83909	69.89546	-1311.46118	-104.60156	605.02869	-1281.56311	-111.57819	446.86237	-1286.93762	-54.86155	278.78717	-1231.21716	-24.16158	76.18472	-1182.89050	28.13791	41.37857	-1220.62891	-164.73926	34.46065	-1193.44019	-184.59612	1708.39648	-3101.93872	1973.08801	1023.86285	-3140.59399	2012.53137	1022.01245			 
109	1.080	-1103.34766	-169.35591	1673.05249	-1211.27808	-209.74522	1673.16821	-1139.87280	-54.03962	1636.02258	-1253.81274	-94.05943	1636.10291	-1170.60938	-13.48359	1437.30688	-1168.66296	20.82892	1143.09070	-1156.85547	-156.69344	1367.91614	-1143.83899	-199.26190	1215.25549	-1245.04578	34.83162	1239.80811	-1001.41632	-84.53908	1402.77087	-914.06464	-46.13739	1220.89856	-912.78308	-27.67991	1070.91443	-883.70630	-61.42731	962.35590	-899.21338	-135.96817	843.00391	-873.19000	-81.47373	841.67676	-867.31604	-125.36738	767.77228	-1314.13000	-106.14839	1391.96948	-1413.28796	-61.73980	1187.75952	-1412.99170	-65.75227	1062.23474	-1438.91943	-106.69321	947.54401	-1415.84778	-200.26910	841.61627	-1454.00256	-157.01738	836.45557	-1451.48596	-201.90045	763.86847	-1046.48364	-148.64592	939.70929	-1263.95032	-162.92650	939.62524	-1107.95483	33.78510	946.50903	-1252.56982	24.25957	951.71832	-971.53632	-189.63608	621.19006	-979.54980	-208.88745	489.93549	-985.64630	-84.63769	353.78506	-1046.21692	42.04770	178.61862	-1110.16052	82.56044	172.03215	-1020.43933	-48.62171	67.63363	-1311.43079	-109.94736	604.67627	-1281.77441	-114.64824	446.71426	-1287.00830	-56.49563	279.12924	-1231.32043	-24.09128	76.71391	-1183.07446	27.92364	42.05338	-1220.66223	-164.80463	34.44151	-1192.51440	-194.92853	1708.26831	-3101.96094	1973.07190	1023.47424	-3140.64746	2012.50098	1021.99744			 
110	1.090	-1102.22278	-179.12340	1672.78748	-1210.40186	-219.92793	1673.02881	-1139.50757	-63.87586	1636.27710	-1253.32092	-104.19477	1636.48035	-1170.77258	-22.90013	1437.48267	-1169.10498	11.82105	1143.30981	-1156.79187	-165.88857	1367.88428	-1143.98560	-208.16635	1215.13696	-1245.51880	25.61942	1240.11292	-1001.41199	-93.52705	1402.63892	-914.64978	-53.53347	1220.62292	-914.04272	-33.61428	1071.11047	-885.20465	-64.76623	961.83051	-900.95447	-136.09186	840.46844	-874.96759	-81.58744	840.63129	-869.19104	-123.29675	765.40057	-1314.21838	-115.61670	1392.14282	-1414.01758	-72.01418	1188.10034	-1413.90552	-77.16087	1062.36951	-1439.75781	-120.31241	948.34674	-1416.44458	-216.09897	844.50421	-1454.61035	-172.79861	838.07355	-1452.15588	-219.63080	766.98083	-1046.82483	-157.64069	940.14838	-1264.28552	-172.26515	939.60669	-1107.76160	24.99061	946.81763	-1252.29700	15.71921	951.94006	-971.32623	-202.28661	623.04260	-980.07080	-222.91083	491.67950	-985.47040	-103.61700	349.77292	-1046.43567	15.82734	169.83687	-1110.64758	55.76299	160.51184	-1017.17041	-79.66014	64.62462	-1311.35364	-114.49480	605.07153	-1281.89404	-117.71492	446.58325	-1287.05823	-58.29511	279.49582	-1231.43079	-24.11542	77.33837	-1182.65466	27.64348	42.61712	-1220.75708	-164.99622	34.53228	-1191.55408	-205.19514	1708.12769	-3101.91138	1972.98682	1023.64703	-3140.74170	2012.47632	1022.01324			 
111	1.100	-1101.56702	-188.94331	1672.26440	-1209.48328	-230.06175	1672.81580	-1139.02844	-73.69523	1636.40527	-1252.70654	-114.33601	1636.79822	-1170.64844	-32.23584	1437.43115	-1169.46057	2.74845	1143.41333	-1156.63513	-175.06436	1367.70349	-1144.10693	-217.21638	1214.93347	-1245.91650	16.38318	1240.36963	-1001.27240	-102.59441	1402.38623	-915.40735	-61.04950	1220.27368	-915.32861	-39.87547	1071.38965	-886.60760	-68.23524	961.39502	-902.63562	-136.38158	838.09595	-876.15698	-82.31459	839.75476	-871.16083	-121.54154	763.26556	-1314.10156	-125.06901	1392.25806	-1414.22021	-82.13260	1188.19604	-1414.76123	-88.53326	1062.46399	-1440.52856	-133.78101	949.11230	-1417.02148	-231.78661	847.43219	-1455.09802	-188.61140	839.93207	-1452.78088	-237.15286	770.09558	-1047.15393	-166.51489	940.43726	-1264.60620	-179.89081	938.93420	-1107.48376	16.19949	947.01263	-1252.07617	7.34667	952.15228	-971.24237	-214.68605	624.74103	-980.62787	-236.46898	493.07422	-985.46454	-122.55419	345.55139	-1046.23730	-10.85383	161.09531	-1110.76599	28.07244	148.64409	-1014.12714	-111.66911	61.80034	-1311.22021	-119.37543	604.83301	-1282.02075	-120.83204	446.23538	-1287.05103	-60.10192	279.80444	-1231.22998	-24.54904	77.63754	-1182.53735	27.42519	43.37190	-1220.70837	-165.19809	34.55191	-1190.53992	-215.50548	1708.05444	-3101.93359	1973.09229	1023.26740	-3140.65601	2012.57422	1022.05933			 
